#!OML:ASF E:\emotionWalksFemale\Project 1\Capture day 1\Session 1\Female1.ASF
:FULLY-SPECIFIED
:DEGREES
95
root 8.45174 16.8321 38.4882 -168.189 1.6028 -178.885
lowerback 2.8881 1.42718 1.42968
upperback -6.15236 2.3396 0.131277
thorax -8.01405 1.1975 -0.908627
lowerneck -9.49092 -2.13634 -5.10409
upperneck 3.84814 -2.36104 1.79025
head 3.01333 -1.1996 1.35519
rclavicle -1.30577e-014 2.28602e-015
rhumerus 9.3399 28.2665 -34.2323
rradius 72.1072
rwrist 4.27195
rhand -3.66757 -54.9035
rfingers 7.12502
rthumb 22.0732 -83.6637
lclavicle -1.30577e-014 2.28602e-015
lhumerus -6.34636 -24.9423 43.7777
lradius 55.4012
lwrist -12.723
lhand 5.1281 -37.5275
lfingers 7.12502
lthumb 30.4922 -10.0305
rfemur 0.274887 13.3125 25.636
rtibia 9.64552
rfoot 5.65737 -32.2218
rtoes 32.9222
lfemur -7.93301 -14.0743 -19.6587
ltibia 23.1556
lfoot 5.74012 19.4372
ltoes -0.80183
96
root 8.4441 17.1194 38.3289 -168.794 1.39435 -179.04
lowerback 2.31632 1.28667 1.61921
upperback -6.39944 2.19294 0.0676823
thorax -7.94188 1.12929 -1.05558
lowerneck -8.91798 -2.12136 -4.96036
upperneck 4.89969 -2.35709 1.49869
head 3.25723 -1.21422 1.23755
rclavicle -1.15357e-014 -3.97569e-015
rhumerus 7.18746 29.3126 -36.0941
rradius 72.523
rwrist 4.63267
rhand -3.07849 -53.9494
rfingers 7.12502
rthumb 22.6386 -82.6417
lclavicle -1.15357e-014 -3.97569e-015
lhumerus -8.53194 -25.2433 45.5053
lradius 54.1088
lwrist -14.0989
lhand 6.05158 -37.7065
lfingers 7.12502
lthumb 31.3725 -10.3767
rfemur 2.86359 14.1807 25.5027
rtibia 6.50226
rfoot -10.507 -36.4252
rtoes 56.6914
lfemur -6.27573 -20.0705 -20.0477
ltibia 21.5777
lfoot -2.92176 27.0978
ltoes 40.5706
97
root 8.43388 17.3913 38.1868 -169.203 1.11292 -179.22
lowerback 1.68881 1.19988 1.82838
upperback -6.55053 2.10321 -0.051476
thorax -7.7304 1.0846 -1.27373
lowerneck -8.58853 -2.12327 -4.98182
upperneck 5.76774 -2.37051 1.44756
head 3.49548 -1.2342 1.22652
rclavicle -1.95989e-014 -8.34896e-015
rhumerus 4.61777 29.4907 -38.5726
rradius 72.661
rwrist 4.90698
rhand -3.66231 -52.4583
rfingers 7.12502
rthumb 22.0782 -81.2179
lclavicle -1.95989e-014 -8.34896e-015
lhumerus -9.9141 -25.2458 47.1571
lradius 52.486
lwrist -14.8768
lhand 6.71501 -37.1951
lfingers 7.12502
lthumb 32.0044 -9.99006
rfemur 4.07591 14.9923 25.5403
rtibia 5.67665
rfoot -23.3818 -34.8855
rtoes 63.2851
lfemur -5.11695 -25.3948 -20.6022
ltibia 20.7046
lfoot -20.3504 26.9039
ltoes 62.8518
98
root 8.42352 17.6636 38.0616 -169.271 0.796014 -179.455
lowerback 0.89626 1.08475 1.92732
upperback -6.63694 1.95966 -0.176841
thorax -7.35951 1.02176 -1.42717
lowerneck -8.38022 -2.08847 -4.96404
upperneck 6.34361 -2.34164 1.44708
head 3.6552 -1.22864 1.22668
rclavicle -6.67792e-015 -1.3418e-015
rhumerus 2.16726 29.0848 -41.3756
rradius 72.5107
rwrist 5.27837
rhand -4.79023 -49.9905
rfingers 7.12502
rthumb 20.9949 -78.8741
lclavicle -6.67792e-015 -1.3418e-015
lhumerus -11.5133 -24.7566 48.934
lradius 51.2556
lwrist -15.4082
lhand 7.64937 -35.8788
lfingers 7.12502
lthumb 32.8936 -8.85623
rfemur 3.92378 15.7855 25.7371
rtibia 6.74328
rfoot -25.3597 -36.5098
rtoes 62.4994
lfemur -4.74158 -26.6972 -20.9623
ltibia 20.2952
lfoot -24.0896 29.1381
ltoes 63.1024
99
root 8.41426 17.9412 37.951 -169.11 0.52818 -179.804
lowerback 0.139787 0.970925 1.81013
upperback -6.7926 1.82128 -0.283405
thorax -7.09252 0.977394 -1.44628
lowerneck -7.75835 -2.12717 -5.24736
upperneck 6.40769 -2.42775 1.80798
head 3.57301 -1.26729 1.39623
rclavicle 1.47691e-014 7.15625e-015
rhumerus -0.250005 28.3357 -44.2572
rradius 72.1335
rwrist 5.91776
rhand -5.28148 -49.0242
rfingers 7.12502
rthumb 20.5229 -77.9594
lclavicle 1.47691e-014 7.15625e-015
lhumerus -13.6829 -23.7986 51.1266
lradius 50.4202
lwrist -16.3291
lhand 7.91927 -34.4341
lfingers 7.12502
lthumb 33.1503 -7.46576
rfemur 3.04175 16.6342 25.6667
rtibia 8.57648
rfoot -24.9257 -39.5085
rtoes 59.6254
lfemur -4.88841 -24.8258 -21.1813
ltibia 19.998
lfoot -24.9063 30.6733
ltoes 62.8578
100
root 8.41824 18.2291 37.8784 -168.59 -0.305899 -180.111
lowerback -0.135536 1.36154 1.62997
upperback -7.01691 1.39163 -0.364091
thorax -7.17897 0.369952 -1.35007
lowerneck -7.49083 -2.27135 -5.60163
upperneck 6.19329 -2.61572 2.05814
head 3.46785 -1.35718 1.53399
rclavicle 8.04457e-015 -7.95139e-016
rhumerus -2.46574 27.3139 -46.9549
rradius 71.5268
rwrist 5.89668
rhand -6.82403 -48.7676
rfingers 7.12502
rthumb 19.0401 -77.8557
lclavicle 8.04457e-015 -7.95139e-016
lhumerus -15.4275 -22.423 53.4628
lradius 49.4661
lwrist -17.5829
lhand 7.49851 -32.9964
lfingers 7.12502
lthumb 32.7501 -5.94377
rfemur 1.48688 16.9779 25.4461
rtibia 10.5692
rfoot -21.9996 -43.2362
rtoes 56.0315
lfemur -5.67916 -22.3711 -20.8812
ltibia 19.4932
lfoot -24.2507 31.7808
ltoes 62.1321
